# Blender v2.79 (sub 0) OBJ File: ''
# www.blender.org
o Cylinder
v -1.022389 0.705342 -0.493144
v -1.022389 1.454262 -0.493144
v -0.949336 0.705342 -0.485949
v -0.949336 1.454262 -0.485949
v -0.879090 0.705342 -0.464640
v -0.879090 1.454262 -0.464640
v -0.814350 0.705342 -0.430036
v -0.814350 1.454262 -0.430036
v -0.757606 0.705342 -0.383468
v -0.757606 1.454262 -0.383468
v -0.711037 0.705342 -0.326723
v -0.711037 1.454262 -0.326723
v -0.676433 0.705342 -0.261984
v -0.676433 1.454262 -0.261984
v -0.655124 0.705342 -0.191738
v -0.655124 1.454262 -0.191738
v -0.647929 0.705342 -0.118685
v -0.647929 1.454262 -0.118685
v -0.655124 0.705342 -0.045631
v -0.655124 1.454262 -0.045631
v -0.676433 0.705342 0.024615
v -0.676433 1.454262 0.024615
v -0.711037 0.705342 0.089354
v -0.711037 1.454262 0.089354
v -0.757606 0.705342 0.146099
v -0.757606 1.454262 0.146099
v -0.814350 0.705342 0.192667
v -0.814350 1.454262 0.192667
v -0.879090 0.705342 0.227271
v -0.879090 1.454262 0.227271
v -0.949336 0.705342 0.248580
v -0.949336 1.454262 0.248580
v -1.022389 0.705342 0.255775
v -1.022389 1.454262 0.255775
v -1.095443 0.705342 0.248580
v -1.095443 1.454262 0.248580
v -1.165689 0.705342 0.227271
v -1.165689 1.454262 0.227271
v -1.230428 0.705342 0.192667
v -1.230428 1.454262 0.192667
v -1.287172 0.705342 0.146098
v -1.287172 1.454262 0.146098
v -1.333741 0.705342 0.089354
v -1.333741 1.454262 0.089354
v -1.368345 0.705342 0.024615
v -1.368345 1.454262 0.024615
v -1.389654 0.705342 -0.045631
v -1.389654 1.454262 -0.045631
v -1.396849 0.705342 -0.118685
v -1.396849 1.454262 -0.118685
v -1.389654 0.705342 -0.191738
v -1.389654 1.454262 -0.191738
v -1.368345 0.705342 -0.261984
v -1.368345 1.454262 -0.261984
v -1.333741 0.705342 -0.326724
v -1.333741 1.454262 -0.326724
v -1.287172 0.705342 -0.383468
v -1.287172 1.454262 -0.383468
v -1.230428 0.705342 -0.430037
v -1.230428 1.454262 -0.430037
v -1.165688 0.705342 -0.464641
v -1.165688 1.454262 -0.464641
v -1.095442 0.705342 -0.485949
v -1.095442 1.454262 -0.485949
v -1.999541 -1.000000 0.936194
v -1.999541 1.000000 0.936194
v -1.999541 -1.000000 -1.063806
v -1.999541 1.000000 -1.063806
v 1.999541 -1.000000 0.936194
v 1.999541 1.000000 0.936194
v 1.999541 -1.000000 -1.063806
v 1.999541 1.000000 -1.063806
v 0.977611 0.705342 -0.493144
v 0.977611 1.454262 -0.493144
v 1.050665 0.705342 -0.485949
v 1.050665 1.454262 -0.485949
v 1.120911 0.705342 -0.464640
v 1.120911 1.454262 -0.464640
v 1.185650 0.705342 -0.430036
v 1.185650 1.454262 -0.430036
v 1.242394 0.705342 -0.383468
v 1.242394 1.454262 -0.383468
v 1.288963 0.705342 -0.326723
v 1.288963 1.454262 -0.326723
v 1.323567 0.705342 -0.261984
v 1.323567 1.454262 -0.261984
v 1.344876 0.705342 -0.191738
v 1.344876 1.454262 -0.191738
v 1.352071 0.705342 -0.118685
v 1.352071 1.454262 -0.118685
v 1.344876 0.705342 -0.045631
v 1.344876 1.454262 -0.045631
v 1.323567 0.705342 0.024615
v 1.323567 1.454262 0.024615
v 1.288963 0.705342 0.089354
v 1.288963 1.454262 0.089354
v 1.242394 0.705342 0.146099
v 1.242394 1.454262 0.146099
v 1.185650 0.705342 0.192668
v 1.185650 1.454262 0.192668
v 1.120911 0.705342 0.227271
v 1.120911 1.454262 0.227271
v 1.050665 0.705342 0.248580
v 1.050665 1.454262 0.248580
v 0.977611 0.705342 0.255775
v 0.977611 1.454262 0.255775
v 0.904557 0.705342 0.248580
v 0.904557 1.454262 0.248580
v 0.834311 0.705342 0.227271
v 0.834311 1.454262 0.227271
v 0.769572 0.705342 0.192667
v 0.769572 1.454262 0.192667
v 0.712828 0.705342 0.146098
v 0.712828 1.454262 0.146098
v 0.666259 0.705342 0.089354
v 0.666259 1.454262 0.089354
v 0.631655 0.705342 0.024615
v 0.631655 1.454262 0.024615
v 0.610346 0.705342 -0.045631
v 0.610346 1.454262 -0.045631
v 0.603151 0.705342 -0.118685
v 0.603151 1.454262 -0.118685
v 0.610346 0.705342 -0.191738
v 0.610346 1.454262 -0.191738
v 0.631655 0.705342 -0.261984
v 0.631655 1.454262 -0.261984
v 0.666259 0.705342 -0.326724
v 0.666259 1.454262 -0.326724
v 0.712828 0.705342 -0.383468
v 0.712828 1.454262 -0.383468
v 0.769573 0.705342 -0.430037
v 0.769573 1.454262 -0.430037
v 0.834312 0.705342 -0.464640
v 0.834312 1.454262 -0.464640
v 0.904558 0.705342 -0.485949
v 0.904558 1.454262 -0.485949
vt 0.957751 0.562987
vt 0.968993 0.656818
vt 0.957751 0.656818
vt 0.968993 0.562987
vt 0.980004 0.656818
vt 0.980004 0.562987
vt 0.990360 0.656818
vt 0.990360 0.562987
vt 0.999663 0.656818
vt 1.000000 0.469156
vt 0.991310 0.375325
vt 1.000000 0.375325
vt 0.991310 0.469156
vt 0.981395 0.375325
vt 0.981395 0.469156
vt 0.970637 0.375325
vt 0.970637 0.469156
vt 0.959449 0.375325
vt 0.959449 0.469156
vt 0.948260 0.375325
vt 0.948260 0.469156
vt 0.937502 0.375325
vt 0.937502 0.469156
vt 0.927588 0.375325
vt 0.927588 0.469156
vt 0.918897 0.375325
vt 0.918897 0.093831
vt 0.927588 0.187662
vt 0.918897 0.187662
vt 0.927588 0.093831
vt 0.937502 0.187662
vt 0.937502 0.093831
vt 0.948260 0.187662
vt 0.948260 0.093831
vt 0.959449 0.187662
vt 0.959449 0.093831
vt 0.970637 0.187662
vt 0.970637 0.093831
vt 0.981395 0.187662
vt 0.981395 0.093831
vt 0.991310 0.187662
vt 0.991310 0.093831
vt 1.000000 0.187662
vt 0.918897 0.187662
vt 0.927588 0.281494
vt 0.918897 0.281494
vt 0.927588 0.187662
vt 0.937502 0.281494
vt 0.937502 0.187662
vt 0.948260 0.281494
vt 0.948260 0.187662
vt 0.959449 0.281494
vt 0.959449 0.187662
vt 0.970637 0.281494
vt 0.970637 0.187662
vt 0.981395 0.281494
vt 0.981395 0.187662
vt 0.991310 0.281494
vt 0.991310 0.187662
vt 1.000000 0.281494
vt 0.918897 0.562987
vt 0.926902 0.656818
vt 0.918897 0.656818
vt 0.926902 0.562987
vt 0.936294 0.656818
vt 0.635991 0.828070
vt 0.555279 0.834573
vt 0.547329 0.768544
vt 0.936294 0.562987
vt 0.946710 0.656818
vt 0.946710 0.562987
vt 0.700183 0.751617
vt 0.762877 0.793709
vt 0.711426 0.844997
vt 0.612598 0.751617
vt 0.306299 0.501040
vt 0.612598 0.501040
vt 0.000000 1.000000
vt 0.306299 0.501040
vt 0.306299 1.000000
vt 0.918897 0.501040
vt 0.612598 0.751617
vt 0.612598 0.501040
vt 0.000000 0.501040
vt 0.306299 0.000000
vt 0.306299 0.501040
vt 0.612598 0.000000
vt 0.918897 0.501040
vt 0.612598 0.501040
vt 0.612598 0.501040
vt 0.306299 0.000000
vt 0.612598 0.000000
vt 0.957751 0.656818
vt 0.968993 0.750650
vt 0.957751 0.750650
vt 0.968993 0.656818
vt 0.980004 0.750650
vt 0.980004 0.656818
vt 0.990360 0.750650
vt 0.990360 0.656818
vt 0.999663 0.750650
vt 1.000000 0.562987
vt 0.991310 0.469156
vt 1.000000 0.469156
vt 0.991310 0.562987
vt 0.981395 0.469156
vt 0.981395 0.562987
vt 0.970637 0.469156
vt 0.970637 0.562987
vt 0.959449 0.469156
vt 0.959449 0.562987
vt 0.948260 0.469156
vt 0.948260 0.562987
vt 0.937502 0.469156
vt 0.937502 0.562987
vt 0.927588 0.469156
vt 0.927588 0.562987
vt 0.918897 0.469156
vt 0.918897 0.281494
vt 0.927588 0.375325
vt 0.918897 0.375325
vt 0.927588 0.281494
vt 0.937502 0.375325
vt 0.937502 0.281494
vt 0.948260 0.375325
vt 0.948260 0.281494
vt 0.959449 0.375325
vt 0.959449 0.281494
vt 0.970637 0.375325
vt 0.970637 0.281494
vt 0.981395 0.375325
vt 0.981395 0.281494
vt 0.991310 0.375325
vt 0.991310 0.281494
vt 1.000000 0.375325
vt 0.918897 0.000000
vt 0.927588 0.093831
vt 0.918897 0.093831
vt 0.927588 0.000000
vt 0.937502 0.093831
vt 0.937502 0.000000
vt 0.948260 0.093831
vt 0.948260 0.000000
vt 0.959449 0.093831
vt 0.959449 0.000000
vt 0.970637 0.093831
vt 0.970637 0.000000
vt 0.981395 0.093831
vt 0.981395 0.000000
vt 0.991310 0.093831
vt 0.991310 0.000000
vt 1.000000 0.093831
vt 0.918897 0.656818
vt 0.926902 0.750650
vt 0.918897 0.750650
vt 0.926902 0.656818
vt 0.936294 0.750650
vt 0.528092 0.776191
vt 0.504550 0.839683
vt 0.426939 0.820423
vt 0.936294 0.656818
vt 0.946710 0.750650
vt 0.946710 0.656818
vt 0.306299 0.802906
vt 0.357750 0.751617
vt 0.420443 0.793709
vt 0.999663 0.562987
vt 0.918897 0.469156
vt 1.000000 0.093831
vt 1.000000 0.187662
vt 0.628042 0.762041
vt 0.635991 0.768544
vt 0.642237 0.776191
vt 0.646539 0.784688
vt 0.648732 0.793709
vt 0.648732 0.802906
vt 0.646539 0.811926
vt 0.642237 0.820423
vt 0.628041 0.834573
vt 0.618694 0.839683
vt 0.608307 0.843202
vt 0.597281 0.844997
vt 0.586039 0.844997
vt 0.575013 0.843202
vt 0.564626 0.839683
vt 0.547329 0.828070
vt 0.541083 0.820423
vt 0.536781 0.811926
vt 0.534588 0.802906
vt 0.534588 0.793708
vt 0.536781 0.784688
vt 0.541083 0.776191
vt 0.555279 0.762041
vt 0.564626 0.756931
vt 0.575013 0.753412
vt 0.586039 0.751617
vt 0.597281 0.751617
vt 0.608307 0.753412
vt 0.618694 0.756931
vt 0.648732 0.802905
vt 0.648732 0.793709
vt 0.650926 0.784688
vt 0.655228 0.776191
vt 0.661474 0.768544
vt 0.669423 0.762041
vt 0.678771 0.756931
vt 0.689157 0.753412
vt 0.711426 0.751617
vt 0.722452 0.753412
vt 0.732838 0.756931
vt 0.742186 0.762041
vt 0.750135 0.768544
vt 0.756381 0.776191
vt 0.760683 0.784688
vt 0.762877 0.802906
vt 0.760683 0.811926
vt 0.756381 0.820423
vt 0.750135 0.828070
vt 0.742186 0.834573
vt 0.732838 0.839683
vt 0.722452 0.843202
vt 0.700183 0.844997
vt 0.689157 0.843202
vt 0.678771 0.839683
vt 0.669423 0.834573
vt 0.661474 0.828070
vt 0.655228 0.820423
vt 0.650926 0.811926
vt 0.306299 0.751617
vt 0.000000 0.501040
vt 0.918897 0.751617
vt 0.000000 0.000000
vt 0.918897 0.000000
vt 0.306299 0.501040
vt 0.999663 0.656818
vt 0.918897 0.562987
vt 1.000000 0.281494
vt 1.000000 0.000000
vt 0.450482 0.756931
vt 0.460868 0.753412
vt 0.471895 0.751617
vt 0.483137 0.751617
vt 0.494163 0.753412
vt 0.504549 0.756931
vt 0.513897 0.762041
vt 0.521847 0.768544
vt 0.532395 0.784688
vt 0.534588 0.793709
vt 0.534588 0.802906
vt 0.532395 0.811926
vt 0.528092 0.820423
vt 0.521847 0.828070
vt 0.513897 0.834573
vt 0.494163 0.843202
vt 0.483137 0.844997
vt 0.471895 0.844997
vt 0.460868 0.843202
vt 0.450482 0.839683
vt 0.441134 0.834573
vt 0.433185 0.828070
vt 0.422637 0.811926
vt 0.420443 0.802906
vt 0.420443 0.793709
vt 0.422637 0.784688
vt 0.426939 0.776191
vt 0.433185 0.768544
vt 0.441134 0.762041
vt 0.368992 0.844997
vt 0.357750 0.844997
vt 0.346724 0.843202
vt 0.336337 0.839683
vt 0.326990 0.834573
vt 0.319040 0.828070
vt 0.312795 0.820423
vt 0.308492 0.811926
vt 0.306299 0.793709
vt 0.319040 0.768544
vt 0.308492 0.784688
vt 0.312795 0.776191
vt 0.326990 0.762041
vt 0.336337 0.756931
vt 0.346724 0.753412
vt 0.368992 0.751617
vt 0.380019 0.753412
vt 0.390405 0.756931
vt 0.399753 0.762041
vt 0.407702 0.768544
vt 0.413948 0.776191
vt 0.418250 0.784688
vt 0.420443 0.802906
vt 0.418250 0.811926
vt 0.413948 0.820423
vt 0.407702 0.828070
vt 0.399753 0.834573
vt 0.390405 0.839683
vt 0.380019 0.843202
vn 0.0980 0.0000 -0.9952
vn 0.2903 0.0000 -0.9569
vn 0.4714 0.0000 -0.8819
vn 0.6344 0.0000 -0.7730
vn 0.7730 0.0000 -0.6344
vn 0.8819 0.0000 -0.4714
vn 0.9569 0.0000 -0.2903
vn 0.9952 0.0000 -0.0980
vn 0.9952 0.0000 0.0980
vn 0.9569 0.0000 0.2903
vn 0.8819 0.0000 0.4714
vn 0.7730 0.0000 0.6344
vn 0.6344 0.0000 0.7730
vn 0.4714 0.0000 0.8819
vn 0.2903 0.0000 0.9569
vn 0.0980 0.0000 0.9952
vn -0.0980 0.0000 0.9952
vn -0.2903 0.0000 0.9569
vn -0.4714 0.0000 0.8819
vn -0.6344 0.0000 0.7730
vn -0.7730 0.0000 0.6344
vn -0.8819 0.0000 0.4714
vn -0.9569 0.0000 0.2903
vn -0.9952 0.0000 0.0980
vn -0.9952 0.0000 -0.0980
vn -0.9569 0.0000 -0.2903
vn -0.8819 0.0000 -0.4714
vn -0.7730 0.0000 -0.6344
vn -0.6344 0.0000 -0.7730
vn -0.4714 0.0000 -0.8819
vn 0.0000 1.0000 -0.0000
vn -0.2903 0.0000 -0.9569
vn -0.0980 0.0000 -0.9952
vn 0.0000 -1.0000 0.0000
vn -1.0000 0.0000 0.0000
vn 0.0000 0.0000 -1.0000
vn 1.0000 0.0000 0.0000
vn -0.0000 0.0000 1.0000
s off
f 2/1/1 3/2/1 1/3/1
f 4/4/2 5/5/2 3/2/2
f 6/6/3 7/7/3 5/5/3
f 8/8/4 9/9/4 7/7/4
f 10/10/5 11/11/5 9/12/5
f 12/13/6 13/14/6 11/11/6
f 14/15/7 15/16/7 13/14/7
f 16/17/8 17/18/8 15/16/8
f 18/19/9 19/20/9 17/18/9
f 20/21/10 21/22/10 19/20/10
f 22/23/11 23/24/11 21/22/11
f 24/25/12 25/26/12 23/24/12
f 26/27/13 27/28/13 25/29/13
f 28/30/14 29/31/14 27/28/14
f 30/32/15 31/33/15 29/31/15
f 32/34/16 33/35/16 31/33/16
f 34/36/17 35/37/17 33/35/17
f 36/38/18 37/39/18 35/37/18
f 38/40/19 39/41/19 37/39/19
f 40/42/20 41/43/20 39/41/20
f 42/44/21 43/45/21 41/46/21
f 44/47/22 45/48/22 43/45/22
f 46/49/23 47/50/23 45/48/23
f 48/51/24 49/52/24 47/50/24
f 50/53/25 51/54/25 49/52/25
f 52/55/26 53/56/26 51/54/26
f 54/57/27 55/58/27 53/56/27
f 56/59/28 57/60/28 55/58/28
f 58/61/29 59/62/29 57/63/29
f 60/64/30 61/65/30 59/62/30
f 54/66/31 38/67/31 22/68/31
f 62/69/32 63/70/32 61/65/32
f 64/71/33 1/3/33 63/70/33
f 15/72/34 31/73/34 47/74/34
f 66/75/35 67/76/35 65/77/35
f 68/78/36 71/79/36 67/80/36
f 72/81/37 69/82/37 71/83/37
f 70/84/38 65/85/38 69/86/38
f 71/87/34 65/88/34 67/89/34
f 68/90/31 70/91/31 72/92/31
f 74/93/1 75/94/1 73/95/1
f 76/96/2 77/97/2 75/94/2
f 78/98/3 79/99/3 77/97/3
f 80/100/4 81/101/4 79/99/4
f 82/102/5 83/103/5 81/104/5
f 84/105/6 85/106/6 83/103/6
f 86/107/7 87/108/7 85/106/7
f 88/109/8 89/110/8 87/108/8
f 90/111/9 91/112/9 89/110/9
f 92/113/10 93/114/10 91/112/10
f 94/115/11 95/116/11 93/114/11
f 96/117/12 97/118/12 95/116/12
f 98/119/13 99/120/13 97/121/13
f 100/122/14 101/123/14 99/120/14
f 102/124/15 103/125/15 101/123/15
f 104/126/16 105/127/16 103/125/16
f 106/128/17 107/129/17 105/127/17
f 108/130/18 109/131/18 107/129/18
f 110/132/19 111/133/19 109/131/19
f 112/134/20 113/135/20 111/133/20
f 114/136/21 115/137/21 113/138/21
f 116/139/22 117/140/22 115/137/22
f 118/141/23 119/142/23 117/140/23
f 120/143/24 121/144/24 119/142/24
f 122/145/25 123/146/25 121/144/25
f 124/147/26 125/148/26 123/146/26
f 126/149/27 127/150/27 125/148/27
f 128/151/28 129/152/28 127/150/28
f 130/153/29 131/154/29 129/155/29
f 132/156/30 133/157/30 131/154/30
f 126/158/31 110/159/31 94/160/31
f 134/161/32 135/162/32 133/157/32
f 136/163/33 73/95/33 135/162/33
f 87/164/34 103/165/34 119/166/34
f 2/1/1 4/4/1 3/2/1
f 4/4/2 6/6/2 5/5/2
f 6/6/3 8/8/3 7/7/3
f 8/8/4 10/167/4 9/9/4
f 10/10/5 12/13/5 11/11/5
f 12/13/6 14/15/6 13/14/6
f 14/15/7 16/17/7 15/16/7
f 16/17/8 18/19/8 17/18/8
f 18/19/9 20/21/9 19/20/9
f 20/21/10 22/23/10 21/22/10
f 22/23/11 24/25/11 23/24/11
f 24/25/12 26/168/12 25/26/12
f 26/27/13 28/30/13 27/28/13
f 28/30/14 30/32/14 29/31/14
f 30/32/15 32/34/15 31/33/15
f 32/34/16 34/36/16 33/35/16
f 34/36/17 36/38/17 35/37/17
f 36/38/18 38/40/18 37/39/18
f 38/40/19 40/42/19 39/41/19
f 40/42/20 42/169/20 41/43/20
f 42/44/21 44/47/21 43/45/21
f 44/47/22 46/49/22 45/48/22
f 46/49/23 48/51/23 47/50/23
f 48/51/24 50/53/24 49/52/24
f 50/53/25 52/55/25 51/54/25
f 52/55/26 54/57/26 53/56/26
f 54/57/27 56/59/27 55/58/27
f 56/59/28 58/170/28 57/60/28
f 58/61/29 60/64/29 59/62/29
f 60/64/30 62/69/30 61/65/30
f 6/171/31 4/172/31 2/173/31
f 2/173/31 64/174/31 6/171/31
f 64/174/31 62/175/31 6/171/31
f 62/175/31 60/176/31 58/177/31
f 58/177/31 56/178/31 54/66/31
f 54/66/31 52/179/31 50/180/31
f 50/180/31 48/181/31 54/66/31
f 48/181/31 46/182/31 54/66/31
f 46/182/31 44/183/31 38/67/31
f 44/183/31 42/184/31 38/67/31
f 42/184/31 40/185/31 38/67/31
f 38/67/31 36/186/31 34/187/31
f 34/187/31 32/188/31 30/189/31
f 30/189/31 28/190/31 26/191/31
f 26/191/31 24/192/31 22/68/31
f 22/68/31 20/193/31 18/194/31
f 18/194/31 16/195/31 22/68/31
f 16/195/31 14/196/31 22/68/31
f 14/196/31 12/197/31 10/198/31
f 10/198/31 8/199/31 6/171/31
f 62/175/31 58/177/31 6/171/31
f 58/177/31 54/66/31 6/171/31
f 38/67/31 34/187/31 22/68/31
f 34/187/31 30/189/31 22/68/31
f 30/189/31 26/191/31 22/68/31
f 14/196/31 10/198/31 22/68/31
f 10/198/31 6/171/31 22/68/31
f 54/66/31 46/182/31 38/67/31
f 6/171/31 54/66/31 22/68/31
f 62/69/32 64/71/32 63/70/32
f 64/71/33 2/1/33 1/3/33
f 63/200/34 1/201/34 3/202/34
f 3/202/34 5/203/34 7/204/34
f 7/204/34 9/205/34 11/206/34
f 11/206/34 13/207/34 7/204/34
f 13/207/34 15/72/34 7/204/34
f 15/72/34 17/208/34 19/209/34
f 19/209/34 21/210/34 15/72/34
f 21/210/34 23/211/34 15/72/34
f 23/211/34 25/212/34 31/73/34
f 25/212/34 27/213/34 31/73/34
f 27/213/34 29/214/34 31/73/34
f 31/73/34 33/215/34 35/216/34
f 35/216/34 37/217/34 39/218/34
f 39/218/34 41/219/34 43/220/34
f 43/220/34 45/221/34 47/74/34
f 47/74/34 49/222/34 51/223/34
f 51/223/34 53/224/34 55/225/34
f 55/225/34 57/226/34 63/200/34
f 57/226/34 59/227/34 63/200/34
f 59/227/34 61/228/34 63/200/34
f 63/200/34 3/202/34 7/204/34
f 31/73/34 35/216/34 47/74/34
f 35/216/34 39/218/34 47/74/34
f 39/218/34 43/220/34 47/74/34
f 47/74/34 51/223/34 63/200/34
f 51/223/34 55/225/34 63/200/34
f 63/200/34 7/204/34 15/72/34
f 15/72/34 23/211/34 31/73/34
f 63/200/34 15/72/34 47/74/34
f 66/75/35 68/229/35 67/76/35
f 68/78/36 72/230/36 71/79/36
f 72/81/37 70/231/37 69/82/37
f 70/84/38 66/232/38 65/85/38
f 71/87/34 69/233/34 65/88/34
f 68/90/31 66/234/31 70/91/31
f 74/93/1 76/96/1 75/94/1
f 76/96/2 78/98/2 77/97/2
f 78/98/3 80/100/3 79/99/3
f 80/100/4 82/235/4 81/101/4
f 82/102/5 84/105/5 83/103/5
f 84/105/6 86/107/6 85/106/6
f 86/107/7 88/109/7 87/108/7
f 88/109/8 90/111/8 89/110/8
f 90/111/9 92/113/9 91/112/9
f 92/113/10 94/115/10 93/114/10
f 94/115/11 96/117/11 95/116/11
f 96/117/12 98/236/12 97/118/12
f 98/119/13 100/122/13 99/120/13
f 100/122/14 102/124/14 101/123/14
f 102/124/15 104/126/15 103/125/15
f 104/126/16 106/128/16 105/127/16
f 106/128/17 108/130/17 107/129/17
f 108/130/18 110/132/18 109/131/18
f 110/132/19 112/134/19 111/133/19
f 112/134/20 114/237/20 113/135/20
f 114/136/21 116/139/21 115/137/21
f 116/139/22 118/141/22 117/140/22
f 118/141/23 120/143/23 119/142/23
f 120/143/24 122/145/24 121/144/24
f 122/145/25 124/147/25 123/146/25
f 124/147/26 126/149/26 125/148/26
f 126/149/27 128/151/27 127/150/27
f 128/151/28 130/238/28 129/152/28
f 130/153/29 132/156/29 131/154/29
f 132/156/30 134/161/30 133/157/30
f 78/239/31 76/240/31 74/241/31
f 74/241/31 136/242/31 134/243/31
f 134/243/31 132/244/31 126/158/31
f 132/244/31 130/245/31 126/158/31
f 130/245/31 128/246/31 126/158/31
f 126/158/31 124/247/31 122/248/31
f 122/248/31 120/249/31 118/250/31
f 118/250/31 116/251/31 110/159/31
f 116/251/31 114/252/31 110/159/31
f 114/252/31 112/253/31 110/159/31
f 110/159/31 108/254/31 106/255/31
f 106/255/31 104/256/31 110/159/31
f 104/256/31 102/257/31 110/159/31
f 102/257/31 100/258/31 98/259/31
f 98/259/31 96/260/31 94/160/31
f 94/160/31 92/261/31 90/262/31
f 90/262/31 88/263/31 86/264/31
f 86/264/31 84/265/31 82/266/31
f 82/266/31 80/267/31 78/239/31
f 78/239/31 74/241/31 126/158/31
f 74/241/31 134/243/31 126/158/31
f 126/158/31 122/248/31 110/159/31
f 122/248/31 118/250/31 110/159/31
f 102/257/31 98/259/31 110/159/31
f 98/259/31 94/160/31 110/159/31
f 94/160/31 90/262/31 86/264/31
f 86/264/31 82/266/31 94/160/31
f 82/266/31 78/239/31 94/160/31
f 78/239/31 126/158/31 94/160/31
f 134/161/32 136/163/32 135/162/32
f 136/163/33 74/93/33 73/95/33
f 135/268/34 73/269/34 75/270/34
f 75/270/34 77/271/34 79/272/34
f 79/272/34 81/273/34 87/164/34
f 81/273/34 83/274/34 87/164/34
f 83/274/34 85/275/34 87/164/34
f 87/164/34 89/276/34 95/277/34
f 89/276/34 91/278/34 95/277/34
f 91/278/34 93/279/34 95/277/34
f 95/277/34 97/280/34 103/165/34
f 97/280/34 99/281/34 103/165/34
f 99/281/34 101/282/34 103/165/34
f 103/165/34 105/283/34 107/284/34
f 107/284/34 109/285/34 111/286/34
f 111/286/34 113/287/34 115/288/34
f 115/288/34 117/289/34 119/166/34
f 119/166/34 121/290/34 123/291/34
f 123/291/34 125/292/34 119/166/34
f 125/292/34 127/293/34 119/166/34
f 127/293/34 129/294/34 131/295/34
f 131/295/34 133/296/34 135/268/34
f 135/268/34 75/270/34 87/164/34
f 75/270/34 79/272/34 87/164/34
f 103/165/34 107/284/34 119/166/34
f 107/284/34 111/286/34 119/166/34
f 111/286/34 115/288/34 119/166/34
f 127/293/34 131/295/34 119/166/34
f 131/295/34 135/268/34 119/166/34
f 87/164/34 95/277/34 103/165/34
f 135/268/34 87/164/34 119/166/34
