# File produced by Open Asset Import Library (http://www.assimp.sf.net)
# (assimp v5.0.1588609223)

mtllib result.mtl

# 176 vertex positions
v  0.492349 -0.15076303 -2.1458261
v  0.51256388 0.049127109 -2.1458261
v  0.43465328 0.041668609 -2.1382203
v  0.41750929 -0.12785043 -2.1382203
v  0.39717695 -0.32769784 -2.1458261
v  0.50653434 0.048547279 -1.9708297
v  0.33680394 -0.27788097 -2.1382203
v  0.24153949 -0.45474255 -2.1458261
v  0.48655602 -0.14899302 -1.9708297
v  0.48365071 0.046350162 1.4890648
v  0.20482457 -0.38562024 -2.1382196
v  0.049128819 -0.5125612 -2.1458261
v  0.46457505 -0.14225459 1.4890656
v  0.33479819 0.032086276 2.0870264
v  0.32159325 -0.098480135 2.0870264
v  0.39250395 -0.32384044 -1.9708297
v  0.37477097 -0.30922237 1.4890656
v  0.25942895 -0.21405022 2.0870264
v  0.041660119 -0.43464977 -2.1382196
v  -0.15076162 -0.49235243 -2.1458261
v  0.23869753 -0.44938979 -1.9708297
v  0.22791339 -0.42909542 1.4890656
v  0.1577695 -0.2970275 2.0870264
v  -0.12784567 -0.41751722 -2.1382196
v  -0.32769957 -0.39717421 -2.1458261
v  0.048550036 -0.50653696 -1.9708297
v  0.046359062 -0.48364866 1.4890656
v  0.032091238 -0.33479607 2.0870271
v  -0.27788725 -0.33679822 -2.1382196
v  -0.45474809 -0.24153453 -2.1458261
v  -0.14898701 -0.48655406 -1.9708297
v  -0.14225483 -0.46458125 1.4890656
v  -0.098472506 -0.32159415 2.0870271
v  -0.38562423 -0.20482188 -2.1382196
v  -0.5125643 -0.04912119 -2.1458254
v  -0.32384399 -0.39250502 -1.9708297
v  -0.30921051 -0.37477413 1.4890656
v  -0.2140445 -0.25942984 2.0870271
v  -0.43465298 -0.041662693 -2.1382196
v  -0.49234954 0.15075675 -2.1458254
v  -0.44939768 -0.2386964 -1.9708297
v  -0.4290908 -0.22791134 1.4890656
v  -0.29702914 -0.15776359 2.0870271
v  -0.4175106 0.12783806 -2.1382196
v  -0.39717743 0.32769766 -2.1458254
v  -0.50653553 -0.048559658 -1.970829
v  -0.48364735 -0.046362244 1.4890656
v  -0.3347953 -0.032092199 2.0870271
v  -0.33680499 0.2778869 -2.1382196
v  -0.24153997 0.45474237 -2.1458261
v  -0.48655733 0.14898063 -1.970829
v  -0.46457094 0.14225471 1.4890656
v  -0.32159072 0.098462 2.0870271
v  -0.3747676 0.30920419 1.4890656
v  -0.25942576 0.21404427 2.0870271
v  -0.20482466 0.38562006 -2.1382196
v  -0.049129106 0.51255482 -2.1458261
v  -0.39250365 0.32384637 -1.970829
v  -0.22791004 0.42908943 1.4890656
v  -0.15776463 0.29702768 2.0870271
v  -0.23869726 0.44939569 -1.9708297
v  -0.041662123 0.43464351 -2.1382196
v  0.15076114 0.49235225 -2.1458261
v  -0.048551183 0.50653076 -1.9708297
v  -0.046354201 0.48364267 1.4890656
v  -0.032087993 0.33479014 2.0870264
v  0.1278432 0.41750485 -2.1382196
v  0.32769901 0.39717403 -2.1458261
v  0.14898731 0.48655388 -1.9708297
v  0.14225817 0.46456307 1.4890656
v  0.098475747 0.32158825 2.0870264
v  0.27788669 0.33680412 -2.1382196
v  0.45474836 0.24153435 -2.1458261
v  0.32384393 0.39251092 -1.9708297
v  0.30921456 0.37476814 1.4890648
v  0.21404696 0.25941783 2.0870264
v  0.38562295 0.2048156 -2.1382196
v  0.44939703 0.23870231 -1.9708297
v  0.42909524 0.22791755 1.4890648
v  0.29703423 0.15776987 2.0870264
v  0.52308321 0.050134186 -2.2229216
v  0.46407911 0.24649039 -2.2229216
v  0.41959593 0.22286978 -2.2729192
v  0.47294283 0.045330714 -2.2729197
v  0.30236647 0.36646721 -2.2729192
v  0.33442289 0.4053283 -2.2229216
v  0.13910723 0.45429683 -2.2729192
v  0.15385447 0.50245351 -2.2229216
v  -0.045331575 0.47294307 -2.2729192
v  -0.050137237 0.52308339 -2.2229216
v  -0.22286893 0.41958612 -2.2729192
v  -0.24649613 0.46408075 -2.2229216
v  -0.366476 0.30236807 -2.2729192
v  -0.40532783 0.33442375 -2.2229204
v  -0.45428947 0.13911124 -2.2729192
v  -0.50245249 0.15385121 -2.2229204
v  -0.4729439 -0.045337018 -2.2729192
v  -0.52308333 -0.050140478 -2.2229204
v  -0.41959536 -0.22286999 -2.2729192
v  -0.46408045 -0.2465089 -2.2229216
v  -0.30236721 -0.3664735 -2.2729192
v  -0.33442405 -0.40532237 -2.2229216
v  -0.13910885 -0.45430312 -2.2729192
v  -0.15385649 -0.50245988 -2.2229216
v  0.045329858 -0.47294936 -2.2729192
v  0.05013781 -0.52307755 -2.2229216
v  0.22286731 -0.41959849 -2.2729192
v  0.24649554 -0.46406871 -2.2229216
v  0.36647463 -0.30236825 -2.2729211
v  0.40532812 -0.33441785 -2.2229218
v  0.45428899 -0.13910533 -2.2729197
v  0.5024519 -0.15385754 -2.2229216
v  0.12140141 -0.22857656 2.2729204
v  -0.07578183 -0.24746695 2.2729204
v  0.024688913 -0.25763541 2.2729204
v  -0.16471741 -0.19963981 2.2729204
v  0.19963008 -0.16471548 2.2729204
v  -0.22857611 -0.12140494 2.2729204
v  0.24746639 -0.075781152 2.2729204
v  -0.25763702 -0.024700832 2.2729204
v  0.25762805 0.024688819 2.2729197
v  -0.24747534 0.075769141 2.2729204
v  0.2285677 0.12140513 2.2729197
v  -0.19963905 0.16470347 2.2729204
v  0.16470967 0.19964002 2.2729197
v  -0.12140913 0.22857067 2.2729204
v  0.075774483 0.24746716 2.2729204
v  -0.024697686 0.25762951 2.2729204
v  0.31967255 0.030639747 2.2080085
v  0.28361303 0.15063486 2.2080085
v  0.33453238 0.032055754 2.0870264
v  0.29679739 0.1576478 2.0870264
v  0.33453238 0.032055754 2.0044067
v  0.29679739 0.1576478 2.0044067
v  0.20437489 0.24770519 2.2080064
v  0.21387646 0.25922251 2.0870264
v  0.21387646 0.25922251 2.0044067
v  0.094022468 0.30706188 2.2080085
v  0.098394111 0.32134411 2.0870264
v  0.098394111 0.32134411 2.0044067
v  -0.030644134 0.31967175 2.2080085
v  -0.032069206 0.33453378 2.0870264
v  -0.032069206 0.33453378 2.0044067
v  -0.15064688 0.28360608 2.2080085
v  -0.15764982 0.29679576 2.0870264
v  -0.15764982 0.29679576 2.0044067
v  -0.2477148 0.20438242 2.2080085
v  -0.25923035 0.21387339 2.0870271
v  -0.25923035 0.21387339 2.0044076
v  -0.30707237 0.094024763 2.2080085
v  -0.32134658 0.098394863 2.0870271
v  -0.32134628 0.098394863 2.0044076
v  -0.31968117 -0.030645657 2.2080085
v  -0.33454201 -0.032067783 2.0870271
v  -0.33454201 -0.032067783 2.0044076
v  -0.28362113 -0.15064079 2.2080085
v  -0.29680637 -0.15765373 2.0870271
v  -0.29680637 -0.15765373 2.0044076
v  -0.20438454 -0.24771722 2.2080085
v  -0.21388531 -0.25922233 2.0870271
v  -0.21388531 -0.25922233 2.0044076
v  -0.094031341 -0.30706778 2.2080085
v  -0.098402694 -0.32134393 2.0870264
v  -0.098402694 -0.32134393 2.0044067
v  0.030636026 -0.31967765 2.2080085
v  0.032059669 -0.33453971 2.0870264
v  0.032059669 -0.33453971 2.0044067
v  0.15063831 -0.2836242 2.2080085
v  0.15764169 -0.29680169 2.0870264
v  0.15764169 -0.29680169 2.0044067
v  0.24770671 -0.20438837 2.2080085
v  0.25922033 -0.21389152 2.0870264
v  0.25922033 -0.21389152 2.0044067
v  0.30706427 -0.094030671 2.2080085
v  0.321338 -0.098394684 2.0870264
v  0.321338 -0.098394684 2.0044067

# 0 UV coordinates

# 198 vertex normals
vn 0.092479624 -0.028317936 0.99531186
vn 0.096280538 0.009227165 0.99531156
vn 0.82616627 0.079198942 0.55783218
vn 0.79357874 -0.243012 0.55783319
vn 0.074604109 -0.061554641 0.99531168
vn 0.97649223 0.093590148 -0.19417487
vn 0.64018083 -0.52820641 0.55782294
vn 0.045372959 -0.085422754 0.9953112
vn 0.93797618 -0.28722242 -0.19417509
vn 0.98779196 0.094668455 0.12371314
vn 0.38933012 -0.73297471 0.55782646
vn 0.0092313671 -0.096289128 0.9953106
vn 0.94883227 -0.29053801 0.12371346
vn 0.96570098 0.092550837 0.24260256
vn 0.92761266 -0.28404033 0.24260251
vn 0.75665754 -0.62431198 -0.19417509
vn 0.76541293 -0.63153607 0.12371452
vn 0.74829423 -0.61741197 0.24260724
vn 0.079206206 -0.82617527 0.55781788
vn -0.028321186 -0.09248998 0.99531084
vn 0.46016225 -0.86634076 -0.19417582
vn 0.46547449 -0.87637204 0.12371521
vn 0.45505777 -0.85677522 0.24260794
vn -0.24300206 -0.79357386 0.55784458
vn -0.061560623 -0.074610233 0.99531084
vn 0.093611307 -0.97649086 -0.19417183
vn 0.09469457 -0.98778909 0.12371568
vn 0.092579864 -0.96569711 0.2426071
vn -0.52821332 -0.64018494 0.5578118
vn -0.085423991 -0.045374032 0.99531096
vn -0.28721806 -0.93797815 -0.19417188
vn -0.29053369 -0.94883335 0.12371545
vn -0.28403223 -0.92761344 0.2426088
vn -0.7329784 -0.38932964 0.55782169
vn -0.096280769 -0.0092284093 0.99531144
vn -0.62430751 -0.75666112 -0.19417533
vn -0.63153595 -0.76541287 0.12371531
vn -0.6174174 -0.74828982 0.24260683
vn -0.82617074 -0.079190858 0.5578267
vn -0.092480108 0.028318133 0.99531174
vn -0.86634016 -0.46016204 -0.19417925
vn -0.87636811 -0.46548203 0.12371455
vn -0.85677099 -0.45506817 0.24260364
vn -0.79358774 0.24299556 0.55782759
vn -0.074604414 0.061556 0.99531156
vn -0.97649086 -0.093604118 -0.19417499
vn -0.98779011 -0.094685562 0.12371442
vn -0.96569908 -0.092567191 0.24260381
vn -0.64018369 0.52819544 0.55783004
vn -0.045370642 0.085426189 0.99531096
vn -0.93797922 0.28721371 -0.19417349
vn -0.94883084 0.29054222 0.1237139
vn -0.92761225 0.28404146 0.24260266
vn -0.76542222 0.63152498 0.12371371
vn -0.74830455 0.61740172 0.24260107
vn -0.38930982 0.73298931 0.55782133
vn -0.0092300596 0.09628582 0.99531096
vn -0.75666517 0.6243028 -0.19417463
vn -0.46547809 0.87637043 0.12371353
vn -0.45506757 0.85677177 0.24260162
vn -0.4601486 0.86634713 -0.19417991
vn -0.079189278 0.82618237 0.55780977
vn 0.028317766 0.092485398 0.99531132
vn -0.093589462 0.97649074 -0.1941825
vn -0.09466929 0.98779184 0.12371305
vn -0.092552491 0.96570122 0.24260059
vn 0.24298371 0.79359901 0.55781668
vn 0.061558574 0.074608147 0.99531108
vn 0.28719771 0.93798196 -0.1941839
vn 0.2905328 0.94883376 0.12371387
vn 0.28404292 0.92761213 0.24260125
vn 0.52819753 0.64019108 0.5578196
vn 0.085423522 0.045372337 0.99531108
vn 0.62428731 0.75667453 -0.19418794
vn 0.63150871 0.76543528 0.12371569
vn 0.61738592 0.74831611 0.24260569
vn 0.73299462 0.38931793 0.5578087
vn 0.86634213 0.46015704 -0.19418271
vn 0.8763662 0.46548548 0.12371527
vn 0.85676301 0.45508125 0.24260697
vn 0.94801027 0.090863064 -0.3049925
vn 0.87497461 0.46473762 0.13578841
vn 0.9862178 0.094530381 0.13578869
vn 0.84107661 0.44673163 -0.30499354
vn 0.63053328 0.76419115 0.135793
vn 0.62216413 0.33047342 -0.70971769
vn 0.70127165 0.067218244 -0.70971823
vn 0.44835258 0.54338592 -0.70972651
vn 0.60609627 0.73459202 -0.30499497
vn 0.29006684 0.94731981 0.13581762
vn 0.20626763 0.67361045 -0.70972013
vn 0.27883792 0.91062438 -0.30497989
vn -0.094537944 0.98620659 0.13586457
vn -0.067225523 0.70125705 -0.70973182
vn -0.090875052 0.94801754 -0.30496654
vn -0.46473432 0.87496549 0.13585839
vn -0.33045807 0.62213475 -0.70975053
vn -0.44672945 0.84108275 -0.30497968
vn -0.76420289 0.63051552 0.13580902
vn -0.5433991 0.44834211 -0.70972294
vn -0.73459774 0.60609412 -0.30498549
vn -0.94732237 0.2900725 0.13578759
vn -0.67362124 0.20627753 -0.70970696
vn -0.91062337 0.27883333 -0.30498666
vn -0.98621666 -0.094502434 0.13581634
vn -0.70126903 -0.067213923 -0.70972109
vn -0.94801325 -0.090867966 -0.30498159
vn -0.87497288 -0.46472228 0.13585173
vn -0.62215048 -0.33045414 -0.70973855
vn -0.84106582 -0.44676539 -0.30497363
vn -0.63052106 -0.76419532 0.13582568
vn -0.44834906 -0.54340255 -0.70971596
vn -0.60610342 -0.73459321 -0.30497757
vn -0.29007319 -0.94732004 0.13580216
vn -0.20627719 -0.673648 -0.70968169
vn -0.27884203 -0.91062993 -0.3049596
vn 0.094559871 -0.98621738 0.13577105
vn 0.067247763 -0.70133996 -0.70964783
vn 0.090901576 -0.94801742 -0.30495885
vn 0.46474126 -0.87498033 0.13573886
vn 0.33049089 -0.62223214 -0.70964992
vn 0.44674528 -0.84107602 -0.30497518
vn 0.76419258 -0.6305393 0.13575667
vn 0.54341453 -0.44837382 -0.70969117
vn 0.73459333 -0.60609639 -0.30499133
vn 0.94732004 -0.29008141 0.13578466
vn 0.67361063 -0.20626204 -0.70972151
vn 0.91061646 -0.27884603 -0.30499581
vn -5.8295046e-07 2.9546038e-07 -1
vn -5.8295052e-07 2.9546041e-07 -1
vn -5.8295046e-07 2.9546041e-07 -1
vn 9.2674685e-07 5.3593743e-07 1
vn 9.2674696e-07 5.3593743e-07 1
vn 9.2674674e-07 5.3593743e-07 1
vn 0.90568215 0.086812653 0.41497421
vn 0.63704556 0.33837131 0.69258779
vn 0.71802032 0.068818025 0.69261158
vn 0.80352551 0.42678338 0.41497296
vn 0.99359268 0.095217712 0.060885917
vn 0.45907176 0.55642122 0.69256675
vn 0.88151097 0.46822011 0.060896154
vn 0.99543977 0.095391721 -4.1697046e-09
vn 0.88315284 0.46908525 -2.0504368e-08
vn 0.57903761 0.70179784 0.41496414
vn 0.21119787 0.68973178 0.69257885
vn 0.63523674 0.76991218 0.060905933
vn 0.63641876 0.77134371 -3.3716503e-08
vn 0.26639062 0.86995959 0.41497761
vn -0.068826839 0.71804386 0.69258636
vn 0.2922473 0.95440131 0.060906827
vn 0.29279006 0.9561767 -4.1795811e-08
vn -0.086821437 0.90568095 0.41497469
vn -0.33835852 0.63704795 0.69259191
vn -0.095258445 0.99358773 0.060903866
vn -0.095437884 0.99543542 -4.3511864e-08
vn -0.4267914 0.80352145 0.41497278
vn -0.55637509 0.45904288 0.69262278
vn -0.46821928 0.88151181 0.06089076
vn -0.46909726 0.88314652 -3.8603559e-08
vn -0.7017833 0.57904989 0.41497165
vn -0.68969458 0.21118093 0.69262111
vn -0.76991159 0.63524002 0.060879253
vn -0.7713446 0.63641775 -8.0616041e-07
vn -0.8699587 0.26639295 0.41497794
vn -0.71802205 -0.06883081 0.69260848
vn -0.9544012 0.29225287 0.060882017
vn -0.95617354 0.29280072 -1.669389e-06
vn -0.90568078 -0.086811379 0.41497737
vn -0.63703805 -0.33835432 0.69260299
vn -0.99359137 -0.095227718 0.060891025
vn -0.99543899 -0.095400967 -8.7407358e-07
vn -0.80352253 -0.42678416 0.41497824
vn -0.45904389 -0.55638099 0.69261736
vn -0.88150483 -0.46823218 0.060892005
vn -0.88314152 -0.46910661 2.0505301e-08
vn -0.57902527 -0.70180458 0.41496992
vn -0.21118273 -0.6897012 0.6926139
vn -0.63523066 -0.76991916 0.060881227
vn -0.63640648 -0.77135384 3.3716947e-08
vn -0.26638705 -0.86996138 0.414976
vn 0.068792015 -0.7180227 0.69261175
vn -0.29225945 -0.95439911 0.060883336
vn -0.29281166 -0.95617014 4.1795523e-08
vn 0.086789601 -0.90568358 0.41497573
vn 0.33834305 -0.63702685 0.69261873
vn 0.095228262 -0.99359173 0.060885549
vn 0.095412903 -0.9954378 4.3511967e-08
vn 0.42677164 -0.80353343 0.41496992
vn 0.55637825 -0.45903924 0.69262266
vn 0.46819842 -0.88152373 0.060877979
vn 0.46906841 -0.88316178 3.8604227e-08
vn 0.70179641 -0.57903206 0.41497439
vn 0.68969774 -0.21118733 0.69261599
vn 0.76991206 -0.63523936 0.060879275
vn 0.77134252 -0.63642025 2.7818812e-08
vn 0.86996323 -0.26638508 0.41497359
vn 0.95440823 -0.29222989 0.060881685
vn 0.95618159 -0.29277411 1.2797563e-08

# Mesh 'Scene' with 316 faces
g Scene
usemtl DW_Set2_Mat
f  1//1 2//2 3//3
f  1//1 3//3 4//4
f  5//5 1//1 4//4
f  4//4 3//3 6//6
f  5//5 4//4 7//7
f  8//8 5//5 7//7
f  4//4 6//6 9//9
f  7//7 4//4 9//9
f  10//10 9//9 6//6
f  8//8 7//7 11//11
f  12//12 8//8 11//11
f  10//10 13//13 9//9
f  13//13 10//10 14//14
f  13//13 14//14 15//15
f  7//7 9//9 16//16
f  13//13 16//16 9//9
f  11//11 7//7 16//16
f  17//17 13//13 15//15
f  13//13 17//17 16//16
f  17//17 15//15 18//18
f  12//12 11//11 19//19
f  20//20 12//12 19//19
f  11//11 16//16 21//21
f  17//17 21//21 16//16
f  19//19 11//11 21//21
f  22//22 17//17 18//18
f  17//17 22//22 21//21
f  22//22 18//18 23//23
f  20//20 19//19 24//24
f  25//25 20//20 24//24
f  19//19 21//21 26//26
f  22//22 26//26 21//21
f  24//24 19//19 26//26
f  27//27 22//22 23//23
f  22//22 27//27 26//26
f  27//27 23//23 28//28
f  25//25 24//24 29//29
f  30//30 25//25 29//29
f  24//24 26//26 31//31
f  27//27 31//31 26//26
f  29//29 24//24 31//31
f  32//32 27//27 28//28
f  27//27 32//32 31//31
f  32//32 28//28 33//33
f  30//30 29//29 34//34
f  35//35 30//30 34//34
f  29//29 31//31 36//36
f  32//32 36//36 31//31
f  34//34 29//29 36//36
f  37//37 32//32 33//33
f  32//32 37//37 36//36
f  37//37 33//33 38//38
f  35//35 34//34 39//39
f  40//40 35//35 39//39
f  34//34 36//36 41//41
f  37//37 41//41 36//36
f  39//39 34//34 41//41
f  42//42 37//37 38//38
f  37//37 42//42 41//41
f  42//42 38//38 43//43
f  40//40 39//39 44//44
f  45//45 40//40 44//44
f  39//39 41//41 46//46
f  42//42 46//46 41//41
f  44//44 39//39 46//46
f  47//47 42//42 43//43
f  42//42 47//47 46//46
f  47//47 43//43 48//48
f  45//45 44//44 49//49
f  50//50 45//45 49//49
f  44//44 46//46 51//51
f  47//47 51//51 46//46
f  49//49 44//44 51//51
f  52//52 47//47 48//48
f  47//47 52//52 51//51
f  52//52 48//48 53//53
f  54//54 52//52 53//53
f  54//54 51//51 52//52
f  54//54 53//53 55//55
f  50//50 49//49 56//56
f  57//57 50//50 56//56
f  49//49 51//51 58//58
f  54//54 58//58 51//51
f  56//56 49//49 58//58
f  59//59 54//54 55//55
f  59//59 55//55 60//60
f  54//54 61//61 58//58
f  56//56 58//58 61//61
f  54//54 59//59 61//61
f  57//57 56//56 62//62
f  63//63 57//57 62//62
f  56//56 61//61 64//64
f  59//59 64//64 61//61
f  56//56 64//64 62//62
f  65//65 59//59 60//60
f  59//59 65//65 64//64
f  65//65 60//60 66//66
f  63//63 62//62 67//67
f  67//67 62//62 64//64
f  68//68 63//63 67//67
f  65//65 69//69 64//64
f  67//67 64//64 69//69
f  70//70 65//65 66//66
f  65//65 70//70 69//69
f  70//70 66//66 71//71
f  68//68 67//67 72//72
f  72//72 67//67 69//69
f  73//73 68//68 72//72
f  70//70 74//74 69//69
f  72//72 69//69 74//74
f  75//75 70//70 71//71
f  70//70 75//75 74//74
f  75//75 71//71 76//76
f  73//73 72//72 77//77
f  77//77 72//72 74//74
f  2//2 73//73 77//77
f  2//2 77//77 3//3
f  77//77 74//74 78//78
f  3//3 77//77 78//78
f  75//75 78//78 74//74
f  3//3 78//78 6//6
f  79//79 75//75 76//76
f  75//75 79//79 78//78
f  79//79 6//6 78//78
f  79//79 76//76 80//80
f  79//79 10//10 6//6
f  10//10 79//79 80//80
f  10//10 80//80 14//14
f  81//81 73//82 2//83
f  81//81 82//84 73//82
f  82//84 68//85 73//82
f  83//86 82//84 81//81
f  83//86 81//81 84//87
f  85//88 82//84 83//86
f  82//84 86//89 68//85
f  85//88 86//89 82//84
f  86//89 63//90 68//85
f  87//91 86//89 85//88
f  86//89 88//92 63//90
f  87//91 88//92 86//89
f  88//92 57//93 63//90
f  89//94 88//92 87//91
f  88//92 90//95 57//93
f  89//94 90//95 88//92
f  90//95 50//96 57//93
f  91//97 90//95 89//94
f  90//95 92//98 50//96
f  91//97 92//98 90//95
f  92//98 45//99 50//96
f  93//100 92//98 91//97
f  92//98 94//101 45//99
f  93//100 94//101 92//98
f  94//101 40//102 45//99
f  95//103 94//101 93//100
f  94//101 96//104 40//102
f  95//103 96//104 94//101
f  96//104 35//105 40//102
f  97//106 96//104 95//103
f  96//104 98//107 35//105
f  97//106 98//107 96//104
f  98//107 30//108 35//105
f  99//109 98//107 97//106
f  98//107 100//110 30//108
f  99//109 100//110 98//107
f  100//110 25//111 30//108
f  101//112 100//110 99//109
f  100//110 102//113 25//111
f  101//112 102//113 100//110
f  102//113 20//114 25//111
f  103//115 102//113 101//112
f  102//113 104//116 20//114
f  103//115 104//116 102//113
f  104//116 12//117 20//114
f  105//118 104//116 103//115
f  104//116 106//119 12//117
f  105//118 106//119 104//116
f  106//119 8//120 12//117
f  107//121 106//119 105//118
f  106//119 108//122 8//120
f  107//121 108//122 106//119
f  108//122 5//123 8//120
f  109//124 108//122 107//121
f  108//122 110//125 5//123
f  109//124 110//125 108//122
f  110//125 1//126 5//123
f  111//127 110//125 109//124
f  110//125 112//128 1//126
f  111//127 112//128 110//125
f  112//128 2//83 1//126
f  84//87 112//128 111//127
f  112//128 81//81 2//83
f  84//87 81//81 112//128
f  103//129 107//130 105//129
f  107//130 103//129 101//129
f  107//130 101//129 109//129
f  109//129 101//129 99//129
f  109//129 99//129 111//129
f  111//129 99//129 97//131
f  111//129 97//131 84//129
f  84//129 97//131 95//130
f  84//129 95//130 83//129
f  83//129 95//130 93//129
f  83//129 93//129 85//129
f  85//129 93//129 91//129
f  85//129 91//129 87//131
f  87//131 91//129 89//129
f  113//132 114//133 115//132
f  114//133 113//132 116//132
f  116//132 113//132 117//132
f  116//132 117//132 118//134
f  118//134 117//132 119//132
f  118//134 119//132 120//133
f  120//133 119//132 121//132
f  120//133 121//132 122//132
f  122//132 121//132 123//132
f  122//132 123//132 124//132
f  124//132 123//132 125//132
f  124//132 125//132 126//134
f  126//134 125//132 127//134
f  126//134 127//134 128//134
f  129//135 123//136 121//137
f  129//135 130//138 123//136
f  130//138 129//135 131//139
f  130//138 125//140 123//136
f  130//138 131//139 132//141
f  132//141 131//139 133//142
f  132//141 133//142 134//143
f  130//138 135//144 125//140
f  135//144 130//138 132//141
f  135//144 127//145 125//140
f  136//146 132//141 134//143
f  135//144 132//141 136//146
f  136//146 134//143 137//147
f  135//144 138//148 127//145
f  138//148 135//144 136//146
f  138//148 128//149 127//145
f  139//150 136//146 137//147
f  138//148 136//146 139//150
f  139//150 137//147 140//151
f  138//148 141//152 128//149
f  141//152 138//148 139//150
f  141//152 126//153 128//149
f  142//154 139//150 140//151
f  141//152 139//150 142//154
f  142//154 140//151 143//155
f  141//152 144//156 126//153
f  144//156 141//152 142//154
f  144//156 124//157 126//153
f  145//158 142//154 143//155
f  144//156 142//154 145//158
f  145//158 143//155 146//159
f  144//156 147//160 124//157
f  147//160 144//156 145//158
f  147//160 122//161 124//157
f  148//162 145//158 146//159
f  147//160 145//158 148//162
f  148//162 146//159 149//163
f  147//160 150//164 122//161
f  150//164 147//160 148//162
f  150//164 120//165 122//161
f  151//166 148//162 149//163
f  150//164 148//162 151//166
f  151//166 149//163 152//167
f  150//164 153//168 120//165
f  153//168 150//164 151//166
f  153//168 118//169 120//165
f  154//170 151//166 152//167
f  153//168 151//166 154//170
f  154//170 152//167 155//171
f  153//168 156//172 118//169
f  156//172 153//168 154//170
f  156//172 116//173 118//169
f  157//174 154//170 155//171
f  156//172 154//170 157//174
f  157//174 155//171 158//175
f  156//172 159//176 116//173
f  159//176 156//172 157//174
f  159//176 114//177 116//173
f  160//178 157//174 158//175
f  159//176 157//174 160//178
f  160//178 158//175 161//179
f  159//176 162//180 114//177
f  162//180 159//176 160//178
f  162//180 115//181 114//177
f  163//182 160//178 161//179
f  162//180 160//178 163//182
f  163//182 161//179 164//183
f  162//180 165//184 115//181
f  165//184 162//180 163//182
f  165//184 113//185 115//181
f  166//186 163//182 164//183
f  165//184 163//182 166//186
f  166//186 164//183 167//187
f  165//184 168//188 113//185
f  168//188 165//184 166//186
f  168//188 117//189 113//185
f  169//190 166//186 167//187
f  168//188 166//186 169//190
f  169//190 167//187 170//191
f  168//188 171//192 117//189
f  171//192 168//188 169//190
f  171//192 119//193 117//189
f  172//194 169//190 170//191
f  171//192 169//190 172//194
f  172//194 170//191 173//195
f  171//192 174//196 119//193
f  174//196 171//192 172//194
f  174//196 121//137 119//193
f  174//196 129//135 121//137
f  175//197 172//194 173//195
f  174//196 172//194 175//197
f  129//135 174//196 175//197
f  175//197 173//195 176//198
f  129//135 175//197 131//139
f  131//139 175//197 176//198
f  131//139 176//198 133//142

