# File produced by Open Asset Import Library (http://www.assimp.sf.net)
# (assimp v5.0.1588609223)

mtllib result.mtl

# 62 vertex positions
v  -0.39727846 1.6001394 1.3410095
v  -0.39727846 1.3972951 1.3519424
v  -0.39727846 1.539855 1.3780093
v  -0.39727843 1.226006 1.2567097
v  -0.39727843 1.597527 1.2666508
v  -0.39727843 1.5409291 1.1402744
v  -0.39727837 1.4347951 0.98689044
v  -0.39727837 0.86872452 1.0586029
v  -0.39727837 1.1983143 0.83695179
v  -0.39727837 0.51666152 0.83795702
v  -0.39727831 0.91423231 0.6632942
v  -0.39727828 0.21949352 0.52544558
v  -0.39727831 0.82093394 0.57224119
v  -0.39727828 0.74596447 0.46832618
v  -0.39727828 -0.14467889 0.13822213
v  -0.39727828 0.71848643 0.34917679
v  -0.39727822 0.72435802 0.12398566
v  -0.39727819 0.17618904 -0.31638491
v  -0.39727822 0.75768322 0.027257506
v  -0.39727822 0.91232795 -0.1303822
v  -0.39727819 0.98470348 -0.31780857
v  -0.39727822 -0.00094719906 -0.22235835
v  -0.39727822 -0.35032466 -0.22368661
v  -0.39727813 0.49412727 -0.61448061
v  -0.39727813 1.1233449 -0.73897791
v  -0.39727804 0.77216679 -1.0193096
v  -0.39727804 1.1612294 -1.1726785
v  -0.39727795 0.91077763 -1.5041718
v  -0.39727798 1.1647204 -1.3888021
v  -0.39727795 1.1077137 -1.4928231
v  -0.39727795 0.99832654 -1.5419137
v  0.39727798 1.3972951 1.3519424
v  0.39727798 1.6001394 1.3410095
v  0.39727798 1.539855 1.3780093
v  0.39727798 1.226006 1.2567097
v  0.39727798 1.597527 1.2666508
v  0.39727798 1.5409291 1.1402744
v  0.39727804 1.4347951 0.98689121
v  0.39727804 0.86872452 1.0586029
v  0.39727804 1.1983143 0.83695179
v  0.39727804 0.51666152 0.83795702
v  0.39727813 0.91423231 0.6632942
v  0.39727813 0.21949352 0.52544558
v  0.39727813 0.82093394 0.57224119
v  0.39727813 0.74596447 0.46832618
v  0.39727819 -0.14467889 0.13822137
v  0.39727813 0.71848643 0.34917793
v  0.39727822 0.72435802 0.12398566
v  0.39727828 0.17618904 -0.31638491
v  0.39727822 0.75768322 0.027257506
v  0.39727822 0.91232795 -0.1303822
v  0.39727828 0.98470348 -0.31780857
v  0.39727822 -0.0009533026 -0.2223572
v  0.39727822 -0.35032466 -0.22368661
v  0.39727828 0.49412727 -0.61448061
v  0.39727831 1.1233449 -0.73897791
v  0.39727837 0.77216679 -1.0193086
v  0.39727837 1.1612294 -1.1726778
v  0.39727846 0.91077763 -1.5041718
v  0.39727843 1.1647204 -1.3888021
v  0.39727846 1.1077137 -1.4928224
v  0.39727846 0.99832654 -1.5419126

# 0 UV coordinates

# 40 vertex normals
vn -1 0 -0
vn 1 0 0
vn 0 -0.86326915 -0.50474375
vn -0 -0.80457318 0.59385347
vn -0 -0.72675288 0.68689913
vn -0 -0.63290328 0.7742309
vn -0 -0.50836295 0.86114287
vn -0 -0.4852865 0.87435514
vn -0 -0.33750084 0.94132531
vn 0 0.18431391 0.98286736
vn 0 0.88101214 0.47309372
vn 0 0.97414523 -0.22592305
vn 0 0.8712821 -0.49078259
vn 0 0.69275409 -0.72117394
vn 0 0.52899075 -0.84862757
vn 0 0.61397493 -0.78932548
vn 0 0.75750887 -0.65282494
vn 0 0.91069543 -0.41307855
vn 0 0.99497283 -0.10014589
vn 0 0.98405302 0.17787533
vn 0 0.85045856 0.52604187
vn 0 0.84064752 0.54158264
vn 0 0.94167113 0.3365345
vn 0 0.97955906 0.20115666
vn 0 0.99866581 0.051638637
vn 0 0.99866676 0.051619608
vn 0 0.97073179 -0.24016616
vn 0 0.97074068 -0.24013023
vn 0 0.67825782 -0.73482394
vn 0 0.67824829 -0.73483264
vn 0 0.0067137745 -0.99997747
vn 0 0.0067139021 -0.99997747
vn 0 -0.75117636 -0.66010147
vn 0 -0.75119525 -0.66007996
vn 0 -0.90466565 -0.42612222
vn 0 -0.90467298 -0.4261066
vn 0 -0.75859386 -0.6515637
vn 0 -0.58121657 -0.8137489
vn 0 -0.23928474 -0.97094947
vn 0 -0.23986006 -0.97080749

# Mesh 'Scene' with 120 faces
g Scene
usemtl DW_Set2_Mat
f  1//1 2//1 3//1
f  2//1 1//1 4//1
f  4//1 1//1 5//1
f  4//1 5//1 6//1
f  4//1 6//1 7//1
f  8//1 4//1 7//1
f  8//1 7//1 9//1
f  10//1 8//1 9//1
f  10//1 9//1 11//1
f  11//1 12//1 10//1
f  12//1 11//1 13//1
f  12//1 13//1 14//1
f  14//1 15//1 12//1
f  15//1 14//1 16//1
f  15//1 16//1 17//1
f  15//1 17//1 18//1
f  18//1 17//1 19//1
f  18//1 19//1 20//1
f  18//1 20//1 21//1
f  22//1 15//1 18//1
f  22//1 23//1 15//1
f  18//1 21//1 24//1
f  24//1 21//1 25//1
f  24//1 25//1 26//1
f  26//1 25//1 27//1
f  26//1 27//1 28//1
f  28//1 27//1 29//1
f  28//1 29//1 30//1
f  28//1 30//1 31//1
f  32//2 33//2 34//2
f  33//2 32//2 35//2
f  33//2 35//2 36//2
f  36//2 35//2 37//2
f  37//2 35//2 38//2
f  38//2 35//2 39//2
f  38//2 39//2 40//2
f  40//2 39//2 41//2
f  40//2 41//2 42//2
f  43//2 42//2 41//2
f  42//2 43//2 44//2
f  44//2 43//2 45//2
f  46//2 45//2 43//2
f  45//2 46//2 47//2
f  47//2 46//2 48//2
f  48//2 46//2 49//2
f  48//2 49//2 50//2
f  50//2 49//2 51//2
f  51//2 49//2 52//2
f  46//2 53//2 49//2
f  46//2 54//2 53//2
f  52//2 49//2 55//2
f  52//2 55//2 56//2
f  56//2 55//2 57//2
f  56//2 57//2 58//2
f  58//2 57//2 59//2
f  58//2 59//2 60//2
f  60//2 59//2 61//2
f  61//2 59//2 62//2
f  23//3 54//3 46//4
f  23//3 46//4 15//4
f  15//4 46//4 43//5
f  15//4 43//5 12//5
f  12//5 43//5 41//6
f  12//5 41//6 10//6
f  10//6 41//6 39//7
f  10//6 39//7 8//7
f  35//8 8//7 39//7
f  35//8 4//8 8//7
f  32//9 4//8 35//8
f  32//9 2//9 4//8
f  34//10 2//9 32//9
f  34//10 3//10 2//9
f  33//11 3//10 34//10
f  33//11 1//11 3//10
f  1//11 33//11 36//12
f  1//11 36//12 5//12
f  5//12 36//12 37//13
f  5//12 37//13 6//13
f  6//13 37//13 38//14
f  6//13 38//14 7//14
f  7//14 38//14 40//15
f  7//14 40//15 9//15
f  9//15 40//15 42//16
f  9//15 42//16 11//16
f  11//16 42//16 44//17
f  11//16 44//17 13//17
f  13//17 44//17 45//18
f  13//17 45//18 14//18
f  14//18 45//18 47//19
f  14//18 47//19 16//19
f  16//19 47//19 48//20
f  16//19 48//20 17//20
f  17//20 48//20 50//21
f  17//20 50//21 19//21
f  50//21 20//22 19//21
f  50//21 51//22 20//22
f  20//22 51//22 52//23
f  20//22 52//23 21//23
f  21//23 52//23 56//24
f  21//23 56//24 25//24
f  58//25 25//24 56//24
f  58//25 27//26 25//24
f  60//27 27//26 58//25
f  60//27 29//28 27//26
f  61//29 29//28 60//27
f  61//29 30//30 29//28
f  62//31 30//30 61//29
f  62//31 31//32 30//30
f  59//33 31//32 62//31
f  59//33 28//34 31//32
f  57//35 28//34 59//33
f  57//35 26//36 28//34
f  55//37 26//36 57//35
f  55//37 24//37 26//36
f  49//38 24//37 55//37
f  49//38 18//38 24//37
f  53//39 18//38 49//38
f  53//39 22//40 18//38
f  22//40 53//39 54//3
f  22//40 54//3 23//3

