# Blender v2.79 (sub 0) OBJ File: ''
# www.blender.org
o Scene.004
v -0.158911 6.316553 0.404526
v -0.158911 6.235415 0.408899
v -0.158911 6.292439 0.419326
v -0.158911 6.166900 0.370806
v -0.158911 6.315508 0.374783
v -0.158911 6.292869 0.324232
v -0.158911 6.250415 0.262878
v -0.158911 6.023987 0.291563
v -0.158911 6.155823 0.202903
v -0.158911 5.883162 0.203305
v -0.158911 6.042191 0.133440
v -0.158911 5.764295 0.078300
v -0.158911 6.004871 0.097019
v -0.158911 5.974883 0.055453
v -0.158911 5.618626 -0.076589
v -0.158911 5.963892 0.007793
v -0.158911 5.966241 -0.082284
v -0.158911 5.746973 -0.258432
v -0.158911 5.979571 -0.120975
v -0.158911 6.041429 -0.184031
v -0.158911 6.070379 -0.259001
v -0.158911 5.676118 -0.220821
v -0.158911 5.536367 -0.221353
v -0.158911 5.874148 -0.377670
v -0.158911 6.125835 -0.427469
v -0.158911 5.985364 -0.539602
v -0.158911 6.140989 -0.600949
v -0.158911 6.040809 -0.733547
v -0.158911 6.142385 -0.687399
v -0.158911 6.119583 -0.729007
v -0.158911 6.075828 -0.748643
v 0.158911 6.235415 0.408899
v 0.158911 6.316553 0.404526
v 0.158911 6.292439 0.419326
v 0.158911 6.166900 0.370806
v 0.158911 6.315508 0.374783
v 0.158911 6.292869 0.324232
v 0.158911 6.250415 0.262879
v 0.158911 6.023987 0.291563
v 0.158911 6.155823 0.202903
v 0.158911 5.883162 0.203305
v 0.158911 6.042191 0.133440
v 0.158911 5.764295 0.078300
v 0.158911 6.004871 0.097019
v 0.158911 5.974883 0.055453
v 0.158911 5.618626 -0.076589
v 0.158911 5.963892 0.007793
v 0.158911 5.966241 -0.082284
v 0.158911 5.746973 -0.258432
v 0.158911 5.979571 -0.120975
v 0.158911 6.041429 -0.184031
v 0.158911 6.070379 -0.259001
v 0.158911 5.676116 -0.220821
v 0.158911 5.536367 -0.221353
v 0.158911 5.874148 -0.377670
v 0.158911 6.125835 -0.427469
v 0.158911 5.985364 -0.539601
v 0.158911 6.140989 -0.600949
v 0.158911 6.040809 -0.733547
v 0.158911 6.142385 -0.687399
v 0.158911 6.119583 -0.729007
v 0.158911 6.075828 -0.748643
vt 0.402246 0.005733
vt 0.353698 0.010401
vt 0.386512 0.000000
vt 0.316742 0.036382
vt 0.404501 0.021510
vt 0.395960 0.050118
vt 0.376711 0.086126
vt 0.239637 0.090462
vt 0.326403 0.125890
vt 0.164641 0.149117
vt 0.265720 0.172295
vt 0.106222 0.225265
vt 0.247105 0.194712
vt 0.233337 0.219213
vt 0.034795 0.319480
vt 0.231425 0.245295
vt 0.241526 0.292601
vt 0.128501 0.404354
vt 0.253173 0.311862
vt 0.295959 0.339801
vt 0.320377 0.376854
vt 0.082839 0.390609
vt 0.000000 0.402902
vt 0.215459 0.456311
vt 0.369557 0.460940
vt 0.297079 0.532157
vt 0.395316 0.551135
vt 0.348714 0.629681
vt 0.404501 0.596610
vt 0.394999 0.620515
vt 0.370945 0.634633
vt 0.758199 0.624232
vt 0.806747 0.628900
vt 0.791014 0.634633
vt 0.721243 0.598251
vt 0.809003 0.613123
vt 0.800462 0.584515
vt 0.781212 0.548507
vt 0.644138 0.544171
vt 0.730905 0.508743
vt 0.569143 0.485516
vt 0.670221 0.462338
vt 0.510723 0.409368
vt 0.651607 0.439921
vt 0.637838 0.415420
vt 0.439296 0.315153
vt 0.635926 0.389339
vt 0.646028 0.342032
vt 0.533002 0.230279
vt 0.657674 0.322771
vt 0.700460 0.294832
vt 0.724879 0.257779
vt 0.487339 0.244024
vt 0.404501 0.231731
vt 0.619961 0.178322
vt 0.774058 0.173693
vt 0.701580 0.102477
vt 0.799817 0.083498
vt 0.753215 0.004952
vt 0.809003 0.038023
vt 0.799500 0.014118
vt 0.775446 0.000000
vt 0.809003 0.000000
vt 1.000000 0.000000
vt 1.000000 0.083712
vt 0.809003 0.083712
vt 1.000000 0.196678
vt 0.809003 0.196678
vt 1.000000 0.288377
vt 0.809003 0.288377
vt 1.000000 0.376211
vt 0.809003 0.376211
vt 1.000000 0.461758
vt 0.809003 0.461758
vt 1.000000 0.502807
vt 0.809003 0.502807
vt 1.000000 0.529573
vt 0.809003 0.529573
vt 0.451189 0.634633
vt 0.435953 0.804472
vt 0.435953 0.634633
vt 0.451189 0.804472
vt 0.465995 0.634633
vt 0.465995 0.804472
vt 0.381995 0.905773
vt 0.190998 0.905773
vt 0.190998 0.877367
vt 0.381995 0.877367
vt 0.190998 0.837699
vt 0.381995 0.837699
vt 0.190998 0.780516
vt 0.381995 0.780516
vt 0.190998 0.712874
vt 0.381995 0.712874
vt 0.190998 0.685125
vt 0.381995 0.685125
vt 0.190998 0.657826
vt 0.381995 0.657826
vt 0.190998 0.634633
vt 0.381995 0.634633
vt 0.000000 0.634633
vt 0.190997 0.676072
vt 0.000000 0.676072
vt 0.190997 0.697371
vt 0.000000 0.697371
vt 0.000000 0.743483
vt 0.190997 0.743483
vt 0.190997 0.785641
vt 0.000000 0.785641
vt 0.190997 0.877647
vt 0.000000 0.877647
vt 0.190997 0.960474
vt 0.000000 0.960474
vt 0.190998 1.000000
vt 0.000000 1.000000
vt 0.409914 0.634633
vt 0.381995 0.804472
vt 0.381995 0.634633
vt 0.409914 0.804472
vt 0.435952 0.634633
vt 0.435953 0.804472
vt 1.000000 0.548552
vt 0.809003 0.529573
vt 1.000000 0.529573
vt 0.809003 0.548552
vt 1.000000 0.642493
vt 0.809003 0.642493
vt 1.000000 0.745596
vt 0.809003 0.745596
vt 1.000000 0.838723
vt 0.809003 0.838723
vt 1.000000 0.879779
vt 0.809003 0.879778
vt 1.000000 0.932680
vt 0.809003 0.932680
vn -1.0000 -0.0000 -0.0000
vn 1.0000 0.0000 0.0000
vn 0.0000 -0.8633 -0.5046
vn 0.0000 -0.8046 0.5938
vn 0.0000 -0.7266 0.6871
vn 0.0000 -0.6328 0.7743
vn -0.0000 -0.5085 0.8611
vn 0.0000 -0.5082 0.8613
vn 0.0000 -0.4854 0.8743
vn 0.0000 -0.3374 0.9414
vn 0.0000 0.1842 0.9829
vn 0.0000 0.8811 0.4729
vn 0.0000 0.9741 -0.2261
vn 0.0000 0.8712 -0.4910
vn 0.0000 0.8712 -0.4909
vn 0.0000 0.6927 -0.7212
vn 0.0000 0.6928 -0.7212
vn 0.0000 0.5289 -0.8487
vn 0.0000 0.6139 -0.7894
vn 0.0000 0.7575 -0.6528
vn 0.0000 0.9107 -0.4131
vn -0.0000 0.9950 -0.1001
vn -0.0000 0.9840 0.1780
vn 0.0000 0.8505 0.5259
vn 0.0000 0.8407 0.5415
vn 0.0000 0.8407 0.5414
vn 0.0000 0.9417 0.3366
vn 0.0000 0.9796 0.2012
vn -0.0000 0.9987 0.0516
vn -0.0000 0.9707 -0.2402
vn 0.0000 0.6784 -0.7346
vn -0.0000 0.6782 -0.7349
vn 0.0000 0.0068 -1.0000
vn 0.0000 0.0066 -1.0000
vn 0.0000 -0.7511 -0.6602
vn 0.0000 -0.9047 -0.4261
vn 0.0000 -0.7586 -0.6516
vn 0.0000 -0.5812 -0.8137
vn 0.0000 -0.2397 -0.9708
s 1
f 1/1/1 2/2/1 3/3/1
f 2/2/1 1/1/1 4/4/1
f 4/4/1 1/1/1 5/5/1
f 4/4/1 5/5/1 6/6/1
f 4/4/1 6/6/1 7/7/1
f 8/8/1 4/4/1 7/7/1
f 8/8/1 7/7/1 9/9/1
f 10/10/1 8/8/1 9/9/1
f 10/10/1 9/9/1 11/11/1
f 11/11/1 12/12/1 10/10/1
f 12/12/1 11/11/1 13/13/1
f 12/12/1 13/13/1 14/14/1
f 14/14/1 15/15/1 12/12/1
f 15/15/1 14/14/1 16/16/1
f 15/15/1 16/16/1 17/17/1
f 15/15/1 17/17/1 18/18/1
f 18/18/1 17/17/1 19/19/1
f 18/18/1 19/19/1 20/20/1
f 18/18/1 20/20/1 21/21/1
f 22/22/1 15/15/1 18/18/1
f 22/22/1 23/23/1 15/15/1
f 18/18/1 21/21/1 24/24/1
f 24/24/1 21/21/1 25/25/1
f 24/24/1 25/25/1 26/26/1
f 26/26/1 25/25/1 27/27/1
f 26/26/1 27/27/1 28/28/1
f 28/28/1 27/27/1 29/29/1
f 28/28/1 29/29/1 30/30/1
f 28/28/1 30/30/1 31/31/1
f 32/32/2 33/33/2 34/34/2
f 33/33/2 32/32/2 35/35/2
f 33/33/2 35/35/2 36/36/2
f 36/36/2 35/35/2 37/37/2
f 37/37/2 35/35/2 38/38/2
f 38/38/2 35/35/2 39/39/2
f 38/38/2 39/39/2 40/40/2
f 40/40/2 39/39/2 41/41/2
f 40/40/2 41/41/2 42/42/2
f 43/43/2 42/42/2 41/41/2
f 42/42/2 43/43/2 44/44/2
f 44/44/2 43/43/2 45/45/2
f 46/46/2 45/45/2 43/43/2
f 45/45/2 46/46/2 47/47/2
f 47/47/2 46/46/2 48/48/2
f 48/48/2 46/46/2 49/49/2
f 48/48/2 49/49/2 50/50/2
f 50/50/2 49/49/2 51/51/2
f 51/51/2 49/49/2 52/52/2
f 46/46/2 53/53/2 49/49/2
f 46/46/2 54/54/2 53/53/2
f 52/52/2 49/49/2 55/55/2
f 52/52/2 55/55/2 56/56/2
f 56/56/2 55/55/2 57/57/2
f 56/56/2 57/57/2 58/58/2
f 58/58/2 57/57/2 59/59/2
f 58/58/2 59/59/2 60/60/2
f 60/60/2 59/59/2 61/61/2
f 61/61/2 59/59/2 62/62/2
f 23/63/3 54/64/3 46/65/4
f 23/63/3 46/65/4 15/66/4
f 15/66/4 46/65/4 43/67/5
f 15/66/4 43/67/5 12/68/5
f 12/68/5 43/67/5 41/69/6
f 12/68/5 41/69/6 10/70/6
f 10/70/6 41/69/6 39/71/7
f 10/70/6 39/71/7 8/72/8
f 35/73/9 8/72/8 39/71/7
f 35/73/9 4/74/9 8/72/8
f 32/75/10 4/74/9 35/73/9
f 32/75/10 2/76/10 4/74/9
f 34/77/11 2/76/10 32/75/10
f 34/77/11 3/78/11 2/76/10
f 33/79/12 3/80/11 34/81/11
f 33/79/12 1/82/12 3/80/11
f 1/82/12 33/79/12 36/83/13
f 1/82/12 36/83/13 5/84/13
f 5/85/13 36/86/13 37/87/14
f 5/85/13 37/87/14 6/88/15
f 6/88/15 37/87/14 38/89/16
f 6/88/15 38/89/16 7/90/17
f 7/90/17 38/89/16 40/91/18
f 7/90/17 40/91/18 9/92/18
f 9/92/18 40/91/18 42/93/19
f 9/92/18 42/93/19 11/94/19
f 11/94/19 42/93/19 44/95/20
f 11/94/19 44/95/20 13/96/20
f 13/96/20 44/95/20 45/97/21
f 13/96/20 45/97/21 14/98/21
f 14/98/21 45/97/21 47/99/22
f 14/98/21 47/99/22 16/100/22
f 16/101/22 47/99/22 48/102/23
f 16/101/22 48/102/23 17/103/23
f 17/103/23 48/102/23 50/104/24
f 17/103/23 50/104/24 19/105/24
f 50/104/24 20/106/25 19/105/24
f 50/104/24 51/107/26 20/106/25
f 20/106/25 51/107/26 52/108/27
f 20/106/25 52/108/27 21/109/27
f 21/109/27 52/108/27 56/110/28
f 21/109/27 56/110/28 25/111/28
f 58/112/29 25/111/28 56/110/28
f 58/112/29 27/113/29 25/111/28
f 60/114/30 27/113/29 58/112/29
f 60/114/30 29/115/30 27/113/29
f 61/116/31 29/117/30 60/118/30
f 61/116/31 30/119/32 29/117/30
f 62/120/33 30/119/32 61/116/31
f 62/120/33 31/121/34 30/119/32
f 59/122/35 31/123/34 62/124/33
f 59/122/35 28/125/35 31/123/34
f 57/126/36 28/125/35 59/122/35
f 57/126/36 26/127/36 28/125/35
f 55/128/37 26/127/36 57/126/36
f 55/128/37 24/129/37 26/127/36
f 49/130/38 24/129/37 55/128/37
f 49/130/38 18/131/38 24/129/37
f 53/132/39 18/131/38 49/130/38
f 53/132/39 22/133/39 18/131/38
f 22/133/39 53/132/39 54/134/3
f 22/133/39 54/134/3 23/135/3
