# Blender v2.79 (sub 0) OBJ File: ''
# www.blender.org
o Scene.001
v -0.210134 0.550733 0.360921
v 0.041173 0.496129 0.336543
v 0.041173 0.550733 0.360921
v -0.210134 0.496129 0.336543
v -0.210134 0.571555 0.330084
v -0.210134 0.500243 0.249987
v -0.210134 0.633666 0.228091
v -0.210134 0.623849 0.019965
v -0.210134 0.738986 0.149252
v -0.210133 0.729169 -0.074496
v -0.210134 0.844307 0.085009
v -0.210133 0.834489 -0.139716
v -0.210134 0.949627 0.028628
v -0.210133 0.939809 -0.197200
v -0.210134 1.054993 0.016443
v -0.210133 1.045177 -0.229944
v -0.210133 1.160359 0.021757
v -0.210133 1.150542 -0.231463
v -0.210133 1.265725 0.045643
v -0.210133 1.255908 -0.213437
v -0.210133 1.371092 0.098930
v -0.210133 1.361274 -0.200426
v -0.210133 1.406228 0.124166
v -0.210133 1.396631 -0.217966
v -0.210133 1.472154 -0.095951
v -0.210133 1.476500 0.174638
v -0.144609 1.471253 -0.152122
v -0.144609 1.411165 -0.247187
v -0.144609 1.466683 -0.436680
v -0.144609 1.498248 -0.480943
v -0.210133 1.519447 -0.019047
v -0.210133 1.531228 0.237699
v -0.144609 1.585956 0.301771
v -0.144609 1.516634 -0.080325
v -0.144609 1.567032 0.028925
v -0.144609 1.529817 -0.507696
v -0.144609 1.561381 -0.516939
v -0.144609 1.640683 0.309844
v 0.041173 0.500242 0.249987
v 0.041174 0.623849 0.019965
v 0.041174 0.729169 -0.074496
v 0.041174 0.834489 -0.139716
v 0.041174 0.939809 -0.197200
v 0.041174 1.045177 -0.229944
v 0.041174 1.150542 -0.231463
v 0.041174 1.255908 -0.213437
v 0.041174 1.361274 -0.200426
v 0.041174 1.396631 -0.217966
v -0.024350 1.411165 -0.247187
v -0.024350 1.466683 -0.436680
v -0.024350 1.498248 -0.480943
v -0.024350 1.529817 -0.507696
v -0.024350 1.561381 -0.516939
v 0.041173 0.571555 0.330084
v 0.041173 0.633666 0.228091
v 0.041173 0.738986 0.149252
v 0.041174 0.844307 0.085009
v 0.041174 0.949627 0.028628
v 0.041174 1.054993 0.016443
v 0.041174 1.160359 0.021757
v 0.041174 1.265725 0.045643
v 0.041174 1.371092 0.098930
v 0.041174 1.406228 0.124166
v 0.041174 1.472154 -0.095951
v 0.041174 1.476500 0.174638
v 0.041174 1.519447 -0.019047
v 0.041174 1.531228 0.237699
v -0.024350 1.471253 -0.152122
v -0.024350 1.516634 -0.080325
v -0.024350 1.567032 0.028925
v -0.024350 1.585956 0.301771
v -0.024350 1.640683 0.309844
vt 0.091227 0.723441
vt 0.124737 0.882658
vt 0.091227 0.882658
vt 0.124737 0.723441
vt 0.420169 0.047959
vt 0.419736 0.000000
vt 0.436281 0.032961
vt 0.371600 0.007830
vt 0.366517 0.093299
vt 0.249716 0.099698
vt 0.328115 0.164490
vt 0.202587 0.171833
vt 0.297867 0.234797
vt 0.171793 0.242200
vt 0.272012 0.304629
vt 0.145322 0.312098
vt 0.270851 0.371817
vt 0.132675 0.380530
vt 0.279466 0.437946
vt 0.137472 0.447072
vt 0.298457 0.502951
vt 0.153190 0.512432
vt 0.333873 0.566178
vt 0.166105 0.578095
vt 0.349855 0.586811
vt 0.158200 0.601453
vt 0.230414 0.641703
vt 0.381818 0.628075
vt 0.065534 0.908780
vt 0.064041 0.818623
vt 0.089784 0.852898
vt 0.091227 0.923473
vt 0.142654 0.612387
vt 0.198985 0.644532
vt 0.039764 0.658863
vt 0.016727 0.681448
vt 0.275912 0.666876
vt 0.419981 0.658775
vt 0.458710 0.689414
vt 0.088695 0.799598
vt 0.241528 0.668809
vt 0.063170 0.761880
vt 0.305263 0.693985
vt 0.091227 0.723441
vt 0.003472 0.702975
vt 0.000000 0.723441
vt 0.466153 0.723441
vt 0.901623 0.047301
vt 0.760579 0.000000
vt 0.901623 0.000000
vt 0.760579 0.047300
vt 0.901623 0.212117
vt 0.760579 0.212117
vt 0.901622 0.298742
vt 0.760579 0.298742
vt 0.901623 0.369870
vt 0.760579 0.369870
vt 0.901623 0.436897
vt 0.760579 0.436897
vt 0.901623 0.490829
vt 0.760579 0.490829
vt 0.901623 0.528214
vt 0.760579 0.528214
vt 0.030294 0.890934
vt 0.063170 0.723441
vt 0.063170 0.865011
vt 0.030294 0.749363
vt 0.000000 0.917437
vt 0.000000 0.775866
vt 0.748240 0.908573
vt 0.607197 0.908573
vt 0.607197 0.887002
vt 0.748240 0.887002
vt 0.643971 0.866470
vt 0.711466 0.866470
vt 0.643971 0.746770
vt 0.711466 0.746770
vt 0.643971 0.712354
vt 0.711466 0.712354
vt 0.711466 0.687217
vt 0.643971 0.687217
vt 0.643971 0.671360
vt 0.711466 0.671360
vt 0.695271 0.661937
vt 0.760579 0.638962
vt 0.743182 0.671360
vt 0.744864 0.623436
vt 0.575831 0.566065
vt 0.692415 0.576335
vt 0.530601 0.492397
vt 0.655884 0.503902
vt 0.501653 0.421039
vt 0.627480 0.432621
vt 0.477013 0.350292
vt 0.603454 0.361961
vt 0.466153 0.281471
vt 0.604043 0.294764
vt 0.472680 0.215117
vt 0.614375 0.228950
vt 0.490093 0.150307
vt 0.635050 0.164603
vt 0.504712 0.085100
vt 0.672098 0.102578
vt 0.688609 0.082484
vt 0.497418 0.061489
vt 0.570649 0.023653
vt 0.721633 0.042298
vt 0.920034 0.889693
vt 0.948638 0.784421
vt 0.958420 0.873915
vt 0.616783 0.000000
vt 0.760579 0.012877
vt 0.912104 0.819670
vt 0.901623 0.161035
vt 0.942793 0.044888
vt 0.930098 0.224624
vt 0.962800 0.018882
vt 0.906114 0.766786
vt 0.951604 0.272649
vt 0.942548 0.728088
vt 0.981870 0.003920
vt 0.901623 0.690744
vt 0.958420 0.574700
vt 0.973906 0.344596
vt 0.916903 0.526217
vt 1.000000 0.000000
vt 0.969858 0.517814
vt 1.000000 0.526217
vt 0.466153 0.977107
vt 0.607197 1.000000
vt 0.466153 1.000000
vt 0.607196 0.977107
vt 0.466153 0.904562
vt 0.607197 0.904562
vt 0.466153 0.821575
vt 0.607197 0.821575
vt 0.466153 0.744796
vt 0.607197 0.744796
vt 0.466153 0.671360
vt 0.607197 0.671360
vt 0.760579 0.943214
vt 0.901623 0.999050
vt 0.760579 0.999050
vt 0.901623 0.943214
vt 0.760579 0.882309
vt 0.901623 0.882309
vt 0.760579 0.816023
vt 0.901623 0.816023
vt 0.760579 0.741218
vt 0.901623 0.741218
vt 0.760579 0.714109
vt 0.901623 0.714109
vt 0.760579 0.659893
vt 0.901623 0.659893
vt 0.760579 0.610787
vt 0.901623 0.610787
vt 0.864848 0.561388
vt 0.797353 0.561388
vt 0.797353 0.528214
vt 0.864848 0.528214
vn 0.0000 0.2749 0.9615
vn -0.0000 -0.8516 0.5241
vn -1.0000 0.0000 0.0000
vn -0.8201 0.4847 -0.3041
vn -0.8388 0.4623 -0.2876
vn -0.8372 0.4636 -0.2901
vn -0.9164 0.3384 -0.2139
vn -0.8087 0.5493 -0.2103
vn -0.7600 0.6492 -0.0298
vn -0.9568 0.2905 -0.0152
vn -0.8440 0.4653 -0.2669
vn -0.8918 0.4452 -0.0808
vn -0.0000 -0.9637 -0.2670
vn -0.0000 -0.7861 -0.6182
vn 0.0000 -0.5994 -0.8004
vn 0.0000 -0.5030 -0.8643
vn 0.0000 -0.3898 -0.9209
vn 0.0000 -0.1572 -0.9876
vn 0.0000 0.0774 -0.9970
vn 0.0000 0.1456 -0.9893
vn 0.0000 -0.1680 -0.9858
vn 0.0000 -0.5675 -0.8233
vn 0.0000 -0.9225 -0.3861
vn 0.0000 -0.8995 -0.4370
vn 0.0000 -0.7360 -0.6770
vn 0.0000 -0.4741 -0.8805
vn 0.0000 -0.2810 -0.9597
vn 1.0000 -0.0000 0.0000
vn 0.8182 0.4889 -0.3026
vn 0.8386 0.4621 -0.2885
vn 0.9169 0.3388 -0.2111
vn 0.8084 0.5507 -0.2076
vn 0.7478 0.6625 -0.0433
vn 0.8389 0.4600 -0.2908
vn 0.8440 0.4653 -0.2669
vn 0.8952 0.4395 -0.0741
vn 0.9573 0.2884 -0.0200
vn 0.0000 0.8417 0.5400
vn 0.0000 0.7401 0.6725
vn 0.0000 0.5606 0.8281
vn 0.0000 0.4965 0.8680
vn 0.0000 0.2987 0.9543
vn 0.0000 0.0324 0.9995
vn 0.0000 -0.1362 0.9907
vn 0.0000 -0.3387 0.9409
vn 0.0000 -0.5189 0.8548
vn 0.0000 -0.5830 0.8125
vn -0.0000 -0.5828 0.8126
vn 0.0000 -0.6739 0.7388
vn 0.0000 -0.7571 0.6533
vn 0.0000 -0.5398 0.8418
vn 0.0000 -0.1459 0.9893
s 1
f 1/1/1 2/2/2 3/3/1
f 1/1/1 4/4/2 2/2/2
f 5/5/3 4/6/3 1/7/3
f 5/5/3 6/8/3 4/6/3
f 7/9/3 6/8/3 5/5/3
f 7/9/3 8/10/3 6/8/3
f 9/11/3 8/10/3 7/9/3
f 9/11/3 10/12/3 8/10/3
f 11/13/3 10/12/3 9/11/3
f 11/13/3 12/14/3 10/12/3
f 13/15/3 12/14/3 11/13/3
f 13/15/3 14/16/3 12/14/3
f 15/17/3 14/16/3 13/15/3
f 15/17/3 16/18/3 14/16/3
f 17/19/3 16/18/3 15/17/3
f 17/19/3 18/20/3 16/18/3
f 19/21/3 18/20/3 17/19/3
f 19/21/3 20/22/3 18/20/3
f 21/23/3 20/22/3 19/21/3
f 21/23/3 22/24/3 20/22/3
f 22/24/3 21/23/3 23/25/3
f 22/24/3 23/25/3 24/26/4
f 23/25/3 25/27/5 24/26/4
f 23/25/3 26/28/3 25/27/5
f 24/29/4 25/30/5 27/31/6
f 24/29/4 27/31/6 28/32/7
f 28/33/7 27/34/6 29/35/3
f 30/36/3 29/35/3 27/34/6
f 26/28/3 31/37/8 25/27/5
f 26/28/3 32/38/9 31/37/8
f 33/39/10 31/37/8 32/38/9
f 25/30/5 34/40/11 27/31/6
f 30/36/3 27/34/6 34/41/11
f 25/30/5 31/42/8 34/40/11
f 35/43/12 30/36/3 34/41/11
f 35/44/12 34/40/11 31/42/8
f 33/39/10 35/43/12 31/37/8
f 35/43/12 36/45/3 30/36/3
f 35/43/12 37/46/3 36/45/3
f 33/39/10 37/46/3 35/43/12
f 37/46/3 33/39/10 38/47/3
f 6/48/13 2/49/2 4/50/2
f 6/48/13 39/51/13 2/49/2
f 8/52/14 39/51/13 6/48/13
f 8/52/14 40/53/14 39/51/13
f 10/54/15 40/53/14 8/52/14
f 10/54/15 41/55/15 40/53/14
f 12/56/16 41/55/15 10/54/15
f 12/56/16 42/57/16 41/55/15
f 14/58/17 42/57/16 12/56/16
f 14/58/17 43/59/17 42/57/16
f 16/60/18 43/59/17 14/58/17
f 16/60/18 44/61/18 43/59/17
f 18/62/19 44/61/18 16/60/18
f 18/62/19 45/63/19 44/61/18
f 20/64/20 45/65/19 18/66/19
f 20/64/20 46/67/20 45/65/19
f 22/68/21 46/67/20 20/64/20
f 22/68/21 47/69/21 46/67/20
f 47/70/21 22/71/21 24/72/22
f 47/70/21 24/72/22 48/73/22
f 48/73/22 24/72/22 28/74/23
f 48/73/22 28/74/23 49/75/23
f 49/75/23 28/74/23 29/76/24
f 49/75/23 29/76/24 50/77/24
f 50/77/24 29/76/24 30/78/25
f 50/77/24 30/78/25 51/79/25
f 30/78/25 52/80/26 51/79/25
f 30/78/25 36/81/26 52/80/26
f 37/82/27 52/80/26 36/81/26
f 37/82/27 53/83/27 52/80/26
f 39/84/28 3/85/28 2/86/28
f 39/84/28 54/87/28 3/85/28
f 40/88/28 54/87/28 39/84/28
f 40/88/28 55/89/28 54/87/28
f 41/90/28 55/89/28 40/88/28
f 41/90/28 56/91/28 55/89/28
f 42/92/28 56/91/28 41/90/28
f 42/92/28 57/93/28 56/91/28
f 43/94/28 57/93/28 42/92/28
f 43/94/28 58/95/28 57/93/28
f 44/96/28 58/95/28 43/94/28
f 44/96/28 59/97/28 58/95/28
f 45/98/28 59/97/28 44/96/28
f 45/98/28 60/99/28 59/97/28
f 46/100/28 60/99/28 45/98/28
f 46/100/28 61/101/28 60/99/28
f 47/102/28 61/101/28 46/100/28
f 47/102/28 62/103/28 61/101/28
f 63/104/28 62/103/28 47/102/28
f 63/104/28 47/102/28 48/105/29
f 63/104/28 48/105/29 64/106/30
f 63/104/28 64/106/30 65/107/28
f 49/108/31 64/109/30 48/110/29
f 65/107/28 64/106/30 66/111/32
f 65/107/28 66/111/32 67/112/33
f 49/108/31 68/113/34 64/109/30
f 49/114/31 50/115/28 68/116/34
f 68/116/34 50/115/28 51/117/28
f 64/109/30 68/113/34 69/118/35
f 68/116/34 51/117/28 69/119/35
f 64/109/30 69/118/35 66/120/32
f 52/121/28 69/119/35 51/117/28
f 70/122/36 67/123/33 66/120/32
f 70/122/36 66/120/32 69/118/35
f 52/121/28 70/124/36 69/119/35
f 70/122/36 71/125/37 67/123/33
f 53/126/28 70/124/36 52/121/28
f 53/126/28 71/127/37 70/124/36
f 71/127/37 53/126/28 72/128/28
f 54/129/38 1/130/1 3/131/1
f 54/129/38 5/132/38 1/130/1
f 55/133/39 5/132/38 54/129/38
f 55/133/39 7/134/39 5/132/38
f 56/135/40 7/134/39 55/133/39
f 56/135/40 9/136/40 7/134/39
f 57/137/41 9/136/40 56/135/40
f 57/137/41 11/138/41 9/136/40
f 58/139/42 11/138/41 57/137/41
f 58/139/42 13/140/42 11/138/41
f 59/141/43 13/142/42 58/143/42
f 59/141/43 15/144/43 13/142/42
f 60/145/44 15/144/43 59/141/43
f 60/145/44 17/146/44 15/144/43
f 61/147/45 17/146/44 60/145/44
f 61/147/45 19/148/45 17/146/44
f 62/149/46 19/148/45 61/147/45
f 62/149/46 21/150/46 19/148/45
f 21/150/46 62/149/46 63/151/47
f 21/150/46 63/151/47 23/152/48
f 23/152/48 63/151/47 65/153/49
f 23/152/48 65/153/49 26/154/49
f 26/154/49 65/153/49 67/155/50
f 26/154/49 67/155/50 32/156/50
f 33/157/51 32/156/50 67/155/50
f 33/157/51 67/155/50 71/158/51
f 72/159/52 33/157/51 71/158/51
f 72/159/52 38/160/52 33/157/51
